<svg width="20" height="20" viewBox="0 0 20 20" fill="none" xmlns="http://www.w3.org/2000/svg">
<g id="icons8-pause_button 2">
<path id="Vector" d="M9.96663 1.6665C5.36413 1.6665 1.6333 5.39734 1.6333 9.99984C1.6333 14.6023 5.36413 18.3332 9.96663 18.3332C14.5691 18.3332 18.3 14.6023 18.3 9.99984C18.3 5.39734 14.5691 1.6665 9.96663 1.6665ZM7.91667 6.6665C8.37708 6.6665 8.75 7.03942 8.75 7.49984V12.4998C8.75 12.9603 8.37708 13.3332 7.91667 13.3332C7.45625 13.3332 7.08333 12.9603 7.08333 12.4998V7.49984C7.08333 7.03942 7.45625 6.6665 7.91667 6.6665ZM12.0833 6.6665C12.5437 6.6665 12.9167 7.03942 12.9167 7.49984V12.4998C12.9167 12.9603 12.5437 13.3332 12.0833 13.3332C11.6229 13.3332 11.25 12.9603 11.25 12.4998V7.49984C11.25 7.03942 11.6229 6.6665 12.0833 6.6665Z" fill="#98A2B3"/>
</g>
</svg>
