<svg width="110" height="110" viewBox="0 0 110 110" fill="none" xmlns="http://www.w3.org/2000/svg">
<g id="icons8-circled_play 2" opacity="0.12">
<path id="Vector" d="M59.3801 63.261L59.3791 63.2616C58.5904 63.6756 57.7274 63.8831 56.8693 63.8831C55.9051 63.8831 54.9497 63.6209 54.0974 63.1074L54.0967 63.107C52.4716 62.1262 51.5 60.3974 51.5 58.5024V21.4972C51.5 19.6026 52.4712 17.8742 54.0957 16.8933C54.9515 16.3743 55.9111 16.1165 56.8693 16.1165C57.7258 16.1165 58.5867 16.3205 59.3806 16.7389L94.5332 35.2465L59.3801 63.261ZM59.3801 63.261L94.5332 44.7588L59.3801 63.261ZM12.4331 39.9998C12.4331 8.33462 38.1012 -17.3335 69.7664 -17.3335C101.432 -17.3335 127.1 8.33462 127.1 39.9998C127.1 71.665 101.432 97.3332 69.7664 97.3332C38.1012 97.3332 12.4331 71.665 12.4331 39.9998ZM97.4038 40.0073C97.4074 38.0053 96.3071 36.1787 94.5341 35.247L97.4038 40.0073Z" stroke="#12B76A" stroke-width="2"/>
</g>
</svg>
