<svg width="24" height="24" viewBox="0 0 24 24" fill="none" xmlns="http://www.w3.org/2000/svg">
<g id="icons8-menu 1">
<path id="Vector" d="M3.00008 4.5001C2.86757 4.49823 2.73601 4.52271 2.61304 4.57212C2.49007 4.62153 2.37815 4.6949 2.28378 4.78794C2.18941 4.88098 2.11447 4.99186 2.06333 5.11411C2.01218 5.23637 1.98584 5.36757 1.98584 5.5001C1.98584 5.63263 2.01218 5.76383 2.06333 5.88609C2.11447 6.00834 2.18941 6.11922 2.28378 6.21226C2.37815 6.3053 2.49007 6.37867 2.61304 6.42808C2.73601 6.47749 2.86757 6.50197 3.00008 6.5001H21.0001C21.1326 6.50197 21.2642 6.47749 21.3871 6.42808C21.5101 6.37867 21.622 6.3053 21.7164 6.21226C21.8108 6.11922 21.8857 6.00834 21.9368 5.88609C21.988 5.76383 22.0143 5.63263 22.0143 5.5001C22.0143 5.36757 21.988 5.23637 21.9368 5.11411C21.8857 4.99186 21.8108 4.88098 21.7164 4.78794C21.622 4.6949 21.5101 4.62153 21.3871 4.57212C21.2642 4.52271 21.1326 4.49823 21.0001 4.5001H3.00008ZM3.00008 11.0001C2.86757 10.9982 2.73601 11.0227 2.61304 11.0721C2.49007 11.1215 2.37815 11.1949 2.28378 11.2879C2.18941 11.381 2.11447 11.4919 2.06333 11.6141C2.01218 11.7364 1.98584 11.8676 1.98584 12.0001C1.98584 12.1326 2.01218 12.2638 2.06333 12.3861C2.11447 12.5083 2.18941 12.6192 2.28378 12.7123C2.37815 12.8053 2.49007 12.8787 2.61304 12.9281C2.73601 12.9775 2.86757 13.002 3.00008 13.0001H21.0001C21.1326 13.002 21.2642 12.9775 21.3871 12.9281C21.5101 12.8787 21.622 12.8053 21.7164 12.7123C21.8108 12.6192 21.8857 12.5083 21.9368 12.3861C21.988 12.2638 22.0143 12.1326 22.0143 12.0001C22.0143 11.8676 21.988 11.7364 21.9368 11.6141C21.8857 11.4919 21.8108 11.381 21.7164 11.2879C21.622 11.1949 21.5101 11.1215 21.3871 11.0721C21.2642 11.0227 21.1326 10.9982 21.0001 11.0001H3.00008ZM3.00008 17.5001C2.86757 17.4982 2.73601 17.5227 2.61304 17.5721C2.49007 17.6215 2.37815 17.6949 2.28378 17.7879C2.18941 17.881 2.11447 17.9919 2.06333 18.1141C2.01218 18.2364 1.98584 18.3676 1.98584 18.5001C1.98584 18.6326 2.01218 18.7638 2.06333 18.8861C2.11447 19.0083 2.18941 19.1192 2.28378 19.2123C2.37815 19.3053 2.49007 19.3787 2.61304 19.4281C2.73601 19.4775 2.86757 19.502 3.00008 19.5001H21.0001C21.1326 19.502 21.2642 19.4775 21.3871 19.4281C21.5101 19.3787 21.622 19.3053 21.7164 19.2123C21.8108 19.1192 21.8857 19.0083 21.9368 18.8861C21.988 18.7638 22.0143 18.6326 22.0143 18.5001C22.0143 18.3676 21.988 18.2364 21.9368 18.1141C21.8857 17.9919 21.8108 17.881 21.7164 17.7879C21.622 17.6949 21.5101 17.6215 21.3871 17.5721C21.2642 17.5227 21.1326 17.4982 21.0001 17.5001H3.00008Z" fill="#667085"/>
</g>
</svg>
