<svg width="110" height="110" viewBox="0 0 110 110" fill="none" xmlns="http://www.w3.org/2000/svg">
<g id="Frame 242" opacity="0.12">
<path id="Union" fill-rule="evenodd" clip-rule="evenodd" d="M36.4974 18.7618C30.2242 20.9162 23.9511 23.072 18.8199 26.5806C16.2543 28.3357 13.9746 30.4282 12.1236 33.0256C10.2727 35.6272 8.85048 38.7351 8 42.5207C11.9863 47.2416 15.9713 51.961 19.9562 56.6805C23.8275 61.265 27.6974 65.8482 31.5672 70.4314L31.9124 70.8402C35.8988 75.5611 39.8837 80.2805 43.8687 85C44.7191 81.2143 46.1413 78.105 47.9923 75.5049C49.8418 72.9047 52.1216 70.8121 54.6871 69.0571C59.8136 65.551 66.079 63.3936 72.3445 61.2361C83.8464 57.2756 95.3487 53.3149 99.8064 41.0104L129.625 76.3261L132 74.3461L65.9938 -3.82436C65.6665 -4.20297 65.3445 -4.58423 65.0214 -4.96686L64.9934 -5.00001C64.1967 -1.48573 62.7094 1.96245 60.6023 4.82983C58.8405 7.22753 56.6315 9.2624 54.1749 10.9429C49.0451 14.4515 42.7706 16.6074 36.4974 18.7618ZM32.9695 67.3021C28.9832 62.5812 24.9982 57.8618 21.0133 53.1423C23.0397 47.5538 26.4997 43.664 30.7747 40.7404C29.1155 38.7758 27.4566 36.8109 25.7978 34.846C24.1389 32.8811 22.4801 30.9162 20.8209 28.9516C25.9506 25.4416 32.2167 23.2759 38.4899 21.1215L48.4536 32.9215C54.7267 30.7671 60.9998 28.6113 66.131 25.1028C70.1169 29.8231 74.1014 34.5421 78.0859 39.261C82.3624 36.3374 85.8209 32.4476 87.8473 26.8591L97.8323 38.6844C95.8073 44.273 92.3162 48.1275 88.0412 51.0512C84.7242 47.1221 81.4057 43.1915 78.0873 39.2624C72.9576 42.7711 66.683 44.9269 60.4098 47.0813C63.7297 51.0132 67.0509 54.9466 70.3722 58.8799C64.099 61.0357 57.8329 63.2014 52.7032 66.71C51.0371 64.7372 49.3711 62.764 47.705 60.7909C46.047 58.8272 44.389 56.8635 42.7309 54.9002C38.4559 57.8238 34.996 61.7135 32.9695 67.3021ZM66.1298 25.1011C64.4682 23.1336 62.8066 21.1656 61.145 19.1977C59.4829 17.2293 57.8209 15.2609 56.1589 13.2928C60.4339 10.3677 63.9235 6.51455 65.95 0.926026L75.8911 12.6993C73.8647 18.2864 70.4048 22.1775 66.1298 25.1011ZM42.7308 54.8988C47.8605 51.3902 54.1351 49.2343 60.4083 47.0799L60.353 47.0144C56.3865 42.3168 52.42 37.6192 48.452 32.9202C42.1789 35.0746 35.9043 37.2304 30.7746 40.7391C34.6458 45.3236 38.5157 49.9068 42.3856 54.4899L42.7308 54.8988Z" fill="#98A2B3"/>
</g>
</svg>
