<svg width="24" height="24" viewBox="0 0 24 24" fill="none" xmlns="http://www.w3.org/2000/svg">
<g id="icons8-spreadsheet_file 1">
<path id="Vector" d="M6.25 2C5.0095 2 4 3.0095 4 4.25V19.75C4 20.9905 5.0095 22 6.25 22H17.75C18.9905 22 20 20.9905 20 19.75V10H14.25C13.0095 10 12 8.9905 12 7.75V2H6.25ZM13.5 2.43945V7.75C13.5 8.1635 13.8365 8.5 14.25 8.5H19.5605L13.5 2.43945ZM8.25 12H10.75C11.164 12 11.5 12.336 11.5 12.75C11.5 13.164 11.164 13.5 10.75 13.5H8.25C7.836 13.5 7.5 13.164 7.5 12.75C7.5 12.336 7.836 12 8.25 12ZM13.25 12H15.75C16.164 12 16.5 12.336 16.5 12.75C16.5 13.164 16.164 13.5 15.75 13.5H13.25C12.836 13.5 12.5 13.164 12.5 12.75C12.5 12.336 12.836 12 13.25 12ZM8.25 14.5H10.75C11.164 14.5 11.5 14.836 11.5 15.25C11.5 15.664 11.164 16 10.75 16H8.25C7.836 16 7.5 15.664 7.5 15.25C7.5 14.836 7.836 14.5 8.25 14.5ZM13.25 14.5H15.75C16.164 14.5 16.5 14.836 16.5 15.25C16.5 15.664 16.164 16 15.75 16H13.25C12.836 16 12.5 15.664 12.5 15.25C12.5 14.836 12.836 14.5 13.25 14.5ZM8.25 17H10.75C11.164 17 11.5 17.336 11.5 17.75C11.5 18.164 11.164 18.5 10.75 18.5H8.25C7.836 18.5 7.5 18.164 7.5 17.75C7.5 17.336 7.836 17 8.25 17ZM13.25 17H15.75C16.164 17 16.5 17.336 16.5 17.75C16.5 18.164 16.164 18.5 15.75 18.5H13.25C12.836 18.5 12.5 18.164 12.5 17.75C12.5 17.336 12.836 17 13.25 17Z" fill="#98A2B3"/>
</g>
</svg>
