<svg width="110" height="110" viewBox="0 0 110 110" fill="none" xmlns="http://www.w3.org/2000/svg">
<g id="icons8-pause_button 2" opacity="0.12">
<path id="Vector" d="M12.4331 39.9998C12.4331 8.33462 38.1012 -17.3335 69.7664 -17.3335C101.432 -17.3335 127.1 8.33462 127.1 39.9998C127.1 71.665 101.432 97.3332 69.7664 97.3332C38.1012 97.3332 12.4331 71.665 12.4331 39.9998ZM62.25 22.4998C62.25 18.7246 59.1919 15.6665 55.4167 15.6665C51.6415 15.6665 48.5833 18.7246 48.5833 22.4998V57.4998C48.5833 61.275 51.6415 64.3332 55.4167 64.3332C59.1919 64.3332 62.25 61.275 62.25 57.4998V22.4998ZM91.4167 22.4998C91.4167 18.7246 88.3585 15.6665 84.5833 15.6665C80.8081 15.6665 77.75 18.7246 77.75 22.4998V57.4998C77.75 61.275 80.8081 64.3332 84.5833 64.3332C88.3585 64.3332 91.4167 61.275 91.4167 57.4998V22.4998Z" stroke="#98A2B3" stroke-width="2"/>
</g>
</svg>
