<svg width="16" height="17" viewBox="0 0 16 17" fill="none" xmlns="http://www.w3.org/2000/svg">
<g id="icons8-right_arrow 1">
<path id="Vector" d="M14.6667 9.16658H2.94271L5.13804 11.3619C5.39837 11.6222 5.39837 12.0443 5.13804 12.3046C5.00771 12.4349 4.83737 12.4999 4.66671 12.4999C4.49604 12.4999 4.32571 12.4349 4.19537 12.3046L0.86204 8.97125C0.73704 8.84658 0.666707 8.67692 0.666707 8.49992C0.666707 8.32292 0.73704 8.15358 0.86204 8.02858L4.19537 4.69525C4.45571 4.43492 4.87771 4.43492 5.13804 4.69525C5.39837 4.95558 5.39837 5.37758 5.13804 5.63792L2.94271 7.83325H14.6667C15.0347 7.83325 15.3334 8.13192 15.3334 8.49992C15.3334 8.86792 15.0347 9.16658 14.6667 9.16658Z" fill="#98A2B3"/>
</g>
</svg>
