<svg width="20" height="20" viewBox="0 0 20 20" fill="none" xmlns="http://www.w3.org/2000/svg">
<g id="icons8-circled_play 2">
<path id="Vector" d="M9.96663 1.6665C5.36413 1.6665 1.6333 5.39734 1.6333 9.99984C1.6333 14.6023 5.36413 18.3332 9.96663 18.3332C14.5691 18.3332 18.3 14.6023 18.3 9.99984C18.3 5.39734 14.5691 1.6665 9.96663 1.6665ZM8.12419 6.73079C8.22377 6.73079 8.32384 6.75447 8.41634 6.80322L13.4383 9.44727C13.6446 9.5556 13.7724 9.76773 13.772 10.0007C13.772 10.2336 13.6446 10.4449 13.4383 10.5532L8.41634 13.1965C8.32426 13.2448 8.22377 13.2689 8.12419 13.2689C8.01252 13.2689 7.9015 13.2385 7.80192 13.1785C7.61275 13.0644 7.5 12.8639 7.5 12.6431V7.35661C7.5 7.13577 7.61275 6.93529 7.80192 6.82113C7.9015 6.76071 8.01294 6.73079 8.12419 6.73079Z" fill="#12B76A"/>
</g>
</svg>
