<svg width="24" height="24" viewBox="0 0 24 24" fill="none" xmlns="http://www.w3.org/2000/svg">
<g id="icons8-online 1">
<path id="Vector" d="M4.71474 4.99222C4.6056 4.98893 4.49706 5.00951 4.3967 5.05252C4.29634 5.09554 4.20657 5.15994 4.13369 5.24124C0.622782 9.04922 0.622405 14.9451 4.13271 18.7578C4.19868 18.8329 4.279 18.8941 4.36895 18.9377C4.45889 18.9813 4.55665 19.0065 4.65647 19.0118C4.7563 19.0171 4.85617 19.0024 4.95023 18.9686C5.04429 18.9347 5.13064 18.8824 5.20419 18.8147C5.27774 18.747 5.33703 18.6653 5.37855 18.5744C5.42007 18.4835 5.443 18.3851 5.44598 18.2852C5.44897 18.1853 5.43195 18.0858 5.39593 17.9925C5.3599 17.8993 5.30561 17.8142 5.23622 17.7422C2.24653 14.4949 2.24713 9.50084 5.23622 6.25882C5.33604 6.15384 5.40333 6.0222 5.42995 5.87981C5.45657 5.73741 5.44139 5.59035 5.38624 5.4564C5.33109 5.32245 5.23833 5.20733 5.11916 5.12496C5 5.04259 4.85954 4.99648 4.71474 4.99222ZM19.3378 4.99222C19.3127 4.99129 19.2876 4.99161 19.2626 4.99319C19.1199 5.00168 18.9826 5.05077 18.8668 5.13468C18.7511 5.21859 18.6618 5.33382 18.6093 5.46681C18.5569 5.5998 18.5436 5.745 18.5709 5.88532C18.5982 6.02564 18.6651 6.15523 18.7636 6.25882C21.7527 9.50084 21.7533 14.4949 18.7636 17.7422C18.6942 17.8142 18.6399 17.8993 18.6039 17.9925C18.5678 18.0858 18.5508 18.1853 18.5538 18.2852C18.5568 18.3851 18.5797 18.4835 18.6212 18.5744C18.6628 18.6653 18.722 18.747 18.7956 18.8147C18.8692 18.8824 18.9555 18.9347 19.0496 18.9686C19.1436 19.0024 19.2435 19.0171 19.3433 19.0118C19.4431 19.0065 19.5409 18.9813 19.6308 18.9377C19.7208 18.8941 19.8011 18.8329 19.8671 18.7578C23.3774 14.9451 23.377 9.04922 19.8661 5.24124C19.7992 5.16651 19.7179 5.10597 19.6272 5.06319C19.5364 5.02042 19.438 4.99628 19.3378 4.99222ZM15.7499 7.5723C15.6006 7.57079 15.4542 7.61389 15.3295 7.69607C15.2048 7.77826 15.1075 7.89579 15.05 8.03362C14.9926 8.17144 14.9775 8.32329 15.0069 8.46971C15.0362 8.61613 15.1086 8.75046 15.2147 8.8555C16.9351 10.6103 16.9351 13.3898 15.2147 15.1446C15.1437 15.2144 15.0872 15.2977 15.0487 15.3896C15.0101 15.4815 14.9903 15.5801 14.9903 15.6798C14.9903 15.7794 15.0102 15.8781 15.0487 15.9699C15.0873 16.0618 15.1438 16.1451 15.2149 16.2149C15.286 16.2847 15.3703 16.3397 15.4629 16.3765C15.5554 16.4134 15.6544 16.4314 15.7541 16.4296C15.8537 16.4278 15.952 16.4061 16.0431 16.3659C16.1343 16.3257 16.2165 16.2677 16.2851 16.1953C18.5647 13.8701 18.5647 10.1299 16.2851 7.80472C16.2159 7.73219 16.1329 7.67426 16.041 7.63434C15.9491 7.59442 15.8501 7.57332 15.7499 7.5723ZM8.22744 7.57327C8.03298 7.58099 7.84914 7.66398 7.71474 7.80472C5.43511 10.1299 5.43511 13.8701 7.71474 16.1953C7.78325 16.2677 7.86549 16.3257 7.95665 16.3659C8.04782 16.4061 8.14609 16.4278 8.24572 16.4296C8.34535 16.4314 8.44434 16.4134 8.53692 16.3765C8.6295 16.3397 8.7138 16.2847 8.78491 16.2149C8.85601 16.1451 8.9125 16.0618 8.95106 15.9699C8.98962 15.8781 9.00949 15.7794 9.0095 15.6798C9.00952 15.5801 8.98968 15.4815 8.95114 15.3896C8.9126 15.2977 8.85614 15.2144 8.78505 15.1446C7.06468 13.3898 7.06468 10.6103 8.78505 8.8555C8.89241 8.74909 8.96512 8.61273 8.99364 8.46429C9.02216 8.31584 9.00516 8.16225 8.94488 8.02363C8.8846 7.88501 8.78384 7.76784 8.65582 7.68748C8.52779 7.60712 8.37847 7.56731 8.22744 7.57327ZM11.9999 10.5C11.6021 10.5 11.2205 10.6581 10.9392 10.9394C10.6579 11.2207 10.4999 11.6022 10.4999 12C10.4999 12.3979 10.6579 12.7794 10.9392 13.0607C11.2205 13.342 11.6021 13.5 11.9999 13.5C12.3977 13.5 12.7793 13.342 13.0606 13.0607C13.3419 12.7794 13.4999 12.3979 13.4999 12C13.4999 11.6022 13.3419 11.2207 13.0606 10.9394C12.7793 10.6581 12.3977 10.5 11.9999 10.5Z" fill="#12B76A"/>
</g>
</svg>
