<svg width="20" height="20" viewBox="0 0 20 20" fill="none" xmlns="http://www.w3.org/2000/svg">
<g id="icons8-finish_flag 1" clip-path="url(#clip0_64_1027)">
<path id="Vector" d="M19.1666 0.078125L17.9166 1.17188C17.9166 1.17188 16.0774 2.65625 14.2447 2.65625C13.4114 2.65625 12.7603 2.33724 11.927 2.00521C11.009 1.58854 9.91528 0.989583 8.33325 0.989583C3.83455 0.989583 1.25968 3.74023 1.09367 3.90625L0.833252 4.16667L5.15617 16.3281L6.38013 19.7656L7.94263 19.2188L6.48429 15.0781C7.15812 14.5085 8.60344 13.4115 10.078 13.4115C11.328 13.4115 12.093 13.6621 12.7603 13.8281C13.4277 13.9941 14.0787 14.2448 15.078 14.2448C17.0767 14.2448 18.7434 13.3333 18.828 13.3333L19.2447 13.0729L19.1666 0.078125ZM8.41138 2.5C8.62948 2.5 8.83781 2.52604 9.03638 2.55208L9.7395 5.26042C10.4882 5.26042 12.578 6.25 12.578 6.25L11.9791 3.64583C12.6659 3.94206 13.3756 4.16667 14.3228 4.16667C14.7102 4.16667 15.0943 4.11784 15.4687 4.03646L15.677 6.66667C15.677 6.66667 16.5429 6.43555 17.6562 5.72917V9.24479C16.7317 9.65495 15.9114 9.84375 15.9114 9.84375L16.1197 12.5521C15.7649 12.6204 15.3971 12.6562 14.9999 12.6562C14.6353 12.6562 14.3293 12.6107 14.0364 12.5521L13.4114 9.84375C12.578 9.5931 11.3378 9.16667 10.7551 9.16667L11.5103 11.9531C11.0611 11.8815 10.5631 11.8229 9.92179 11.8229C9.39445 11.8229 8.87687 11.9531 8.38534 12.1094L7.34367 9.42708C6.4908 9.77865 5.61841 10.4232 5.02596 10.9115L3.67179 7.10938C4.89575 6.17513 6.09367 5.75521 6.09367 5.75521L5.02596 3.15104C5.94393 2.77995 7.07349 2.5 8.41138 2.5ZM15.9114 9.84375L15.677 6.66667C15.677 6.66667 15.1724 6.82292 14.5051 6.82292C13.5872 6.82292 12.578 6.32812 12.578 6.32812L13.3333 9.73958C13.3333 9.73958 14.0787 9.92188 14.6614 9.92188C15.2441 9.92188 15.9114 9.84375 15.9114 9.84375ZM9.7395 5.26042H9.08846C7.42179 5.26042 5.9895 5.83333 5.9895 5.83333L7.42179 9.42708C7.42179 9.42708 8.49601 9.01042 9.24471 9.01042C9.99341 9.01042 10.7551 9.08854 10.7551 9.08854L9.7395 5.26042Z" fill="#98A2B3"/>
</g>
<defs>
<clipPath id="clip0_64_1027">
<rect width="20" height="20" fill="white"/>
</clipPath>
</defs>
</svg>
